# xmcd
#
# Track frame offsets:
#	150
#	13860
#	33665
#	50070
#	72387
#	90685
#	107150
#	120817
#	136285
#	152295
#	169877
#	187852
#	204267
#	217817
#	235575
#
# Disc length: 3356 seconds
#
# Revision: 1
# Processed by: cddbd v1.5.1PL2 Copyright (c) Steve Scherf et al.
# Submitted via: audiograbber 1.83.01
#
DISCID=bf0d1a0f
DTITLE=Sound Choice - SC8198
DYEAR=1900
DGENRE=Karaoke Country
TTITLE0=Brooks and Dunn - Whiskey Under The Bridge
TTITLE1=Little Texas - Amy'S Back In Austin
TTITLE2=Brokop, Lisa - Who Needs You
TTITLE3=Mcentire, Reba - On My Own
TTITLE4=Byrd, Tracy - Love Lessons
TTITLE5=Stone, Doug - Sometimes I Forget
TTITLE6=Walker, Clay - Who Needs You Baby
TTITLE7=Tippin, Aaron - That'S As Close As I'Ll Get To Loving You
TTITLE8=Raye, Collin - Man Of My Word
TTITLE9=Wright, Michelle - One Good Man
TTITLE10=Chestnutt, Mark - Trouble
TTITLE11=Alabama - In Pictures
TTITLE12=Murphy, David Lee - Fish Ain'T Bitin'
TTITLE13=Howdy, Boy - She Can'T Love You
TTITLE14=Diamond Rio - Finish What We Started
EXTD=
EXTT0=
EXTT1=
EXTT2=
EXTT3=
EXTT4=
EXTT5=
EXTT6=
EXTT7=
EXTT8=
EXTT9=
EXTT10=
EXTT11=
EXTT12=
EXTT13=
EXTT14=
PLAYORDER=
